<svg xmlns="http://www.w3.org/2000/svg" viewBox="0 0 120 120" aria-hidden="true">
  <path d="M18 68c0-25 19-42 42-42 15 0 28 8 35 20" fill="none" stroke="#75909c" stroke-width="6" stroke-linecap="round" stroke-linejoin="round"/>
  <path d="M31 68.5c0 0 8-3.5 14-4.5l16 3 7 5c1 .8 2.5.5 3.3-.5.8-1 1-2.4.5-3.5l-1-1.7-1.7-.5-13.5 1.2-3.5-5 9.5-3.8 4.5 1.2c1 .2 2.1-.2 2.7-1.1.7-1 1-2.3.6-3.4-.4-1.1-1.3-1.8-2.5-2l-10.2-.9-3.5-4.8c-.6-.8-1.6-1.2-2.6-.9L42 51l-5-3c-1-.6-2.3-.4-3.2.5-.9.9-1.2 2.2-.8 3.4l2.4 5.4-7.4 3.6c-1 .5-1.6 1.5-1.6 2.6v2.2c0 .9.5 1.7 1.3 2.1Z" fill="#75909c"/>
</svg>
